PathFileType	4	(X/Y/Z)	D:\luciana\static.trc
DataRate	CameraRate	NumFrames	NumMarkers	Units	OrigDataRate	OrigDataStartFrame	OrigNumFrames
250.00	250.00	9	21	mm	250.00	231	922
Frame#	Time	pelvisR			PelvisL			Trunk1			Trunk2			Trunk3			C7			shoulder			upperArm1			upperArm2			upperArm3			elbow			forearm1			forearm2			forearm3			wrist1			wrist2			wrist3			wristOut			wristIn			elbowInt			hand			
		X1	Y1	Z1	X2	Y2	Z2	X3	Y3	Z3	X4	Y4	Z4	X5	Y5	Z5	X6	Y6	Z6	X7	Y7	Z7	X8	Y8	Z8	X9	Y9	Z9	X10	Y10	Z10	X11	Y11	Z11	X12	Y12	Z12	X13	Y13	Z13	X14	Y14	Z14	X15	Y15	Z15	X16	Y16	Z16	X17	Y17	Z17	X18	Y18	Z18	X19	Y19	Z19	X20	Y20	Z20	X21	Y21	Z21	

230	0.920000	1409.959078	637.637258	656.129003	1744.298458	653.364539	651.069164	1516.777277	872.350454	562.060058	1580.161095	819.215715	561.153650	1491.760969	779.536366	562.877536	1581.835270	1132.061720	743.377447	1752.387047	1067.490458	676.880538	1862.121224	931.399465	773.396850	1903.599620	942.143798	710.275412	1852.083325	916.535497	651.313543	1916.330934	797.978163	701.826930	1922.074556	701.504588	717.428625	1936.025262	731.621444	642.432749	1872.177958	766.227484	625.913680	1836.286306	673.850298	543.712080	1868.906021	614.079237	584.701896	1775.126696	693.516731	580.101788	1822.892666	603.295624	562.585413	1767.573118	646.079481	562.711000	1858.003616	762.980521	765.954137	1791.650653	610.508382	502.510846	
231	0.924000	1409.947157	637.637496	656.116784	1744.305611	653.359652	651.071548	1516.759157	872.337282	562.072515	1580.165386	819.210649	561.179698	1491.746902	779.536963	562.900066	1581.836581	1132.046700	743.381739	1752.387404	1067.486525	676.874161	1862.123609	931.394339	773.399532	1903.603315	942.153394	710.282862	1852.072477	916.536212	651.330948	1916.328430	797.975957	701.826096	1921.977401	701.497912	717.453539	1936.019063	731.616676	642.430007	1872.178197	766.229153	625.919819	1836.285114	673.848808	543.714643	1868.883848	614.062488	584.789038	1775.128484	693.514884	580.115974	1822.917938	603.301883	562.591314	1767.562628	646.067858	562.710881	1858.003616	762.957811	765.939713	1791.656852	610.500574	502.530396	
232	0.928000	1409.969449	637.646973	656.120300	1744.303226	653.358757	651.050448	1516.781807	872.319162	562.119007	1580.159426	819.204390	561.199188	1491.757154	779.531717	562.924922	1581.839323	1132.047653	743.375421	1752.399445	1067.485690	676.879585	1862.126350	931.397259	773.406386	1903.608441	942.157388	710.286796	1852.079630	916.541159	651.336014	1916.320086	797.964990	701.833725	1921.952844	701.497316	717.461169	1936.028361	731.613517	642.442107	1872.171164	766.220808	625.924408	1836.286783	673.846126	543.723106	1868.877053	614.066005	584.785581	1775.125742	693.515778	580.121696	1822.921753	603.315413	562.614322	1767.566204	646.054566	562.706470	1858.008504	762.965262	765.956759	1791.646004	610.509396	502.541065	
233	0.932000	1409.960270	637.668490	656.127572	1744.299650	653.361976	651.053011	1516.806602	872.317910	562.122822	1580.158234	819.195628	561.223567	1491.772890	779.526532	562.954426	1581.844449	1132.056236	743.378043	1752.394080	1067.491174	676.881194	1862.127185	931.398034	773.424268	1903.611660	942.158341	710.293889	1852.069259	916.541576	651.340544	1916.324258	797.971845	701.839268	1921.948552	701.498032	717.471957	1936.032176	731.620491	642.437220	1872.171640	766.221285	625.931323	1836.298108	673.850119	543.726325	1868.860602	614.060879	584.788322	1775.129795	693.509758	580.123603	1822.915912	603.318334	562.598288	1767.570257	646.070898	562.721789	1858.009577	762.968063	765.972614	1791.630268	610.492587	502.544284	
234	0.936000	1409.963012	637.660384	656.118810	1744.307518	653.368890	651.075244	1516.811371	872.313678	562.145352	1580.170155	819.194078	561.239898	1491.769791	779.515386	562.958062	1581.843853	1132.059455	743.393183	1752.395034	1067.493916	676.899195	1862.131357	931.397796	773.424983	1903.608441	942.152619	710.297525	1852.069616	916.540086	651.340544	1916.338086	797.982574	701.849759	1921.945930	701.492488	717.467308	1936.047077	731.632173	642.440319	1872.173071	766.221941	625.939965	1836.297989	673.858106	543.731987	1868.847966	614.065230	584.786236	1775.129318	693.515301	580.124378	1822.916746	603.321314	562.580466	1767.559528	646.074295	562.711835	1858.000994	762.941182	765.944362	1791.623473	610.491931	502.541065	
235	0.940000	1409.954071	637.646437	656.131148	1744.307280	653.357208	651.088715	1516.817808	872.321010	562.169671	1580.182076	819.199383	561.250329	1491.760731	779.513657	562.962711	1581.842184	1132.054090	743.407607	1752.398491	1067.490220	676.906407	1862.129927	931.393802	773.419380	1903.604150	942.149520	710.297048	1852.076769	916.548073	651.334643	1916.342854	797.982454	701.855004	1922.957897	701.524258	717.302680	1936.069250	731.640935	642.431259	1872.180343	766.231537	625.938535	1836.300135	673.862934	543.732405	1868.949175	614.117622	584.637046	1775.126457	693.521261	580.135584	1822.911501	603.308380	562.584102	1767.564058	646.095395	562.708080	1858.011007	762.953043	765.957415	1791.626096	610.508919	502.555192	
236	0.944000	1409.960866	637.631238	656.129479	1744.292259	653.360367	651.088297	1516.805291	872.320414	562.179863	1580.181837	819.198728	561.272979	1491.759181	779.511631	562.972665	1581.857562	1132.058382	743.412018	1752.398372	1067.485452	676.891863	1862.125397	931.392670	773.423195	1903.608799	942.152977	710.302770	1852.086067	916.542709	651.340425	1916.335464	797.974646	701.847672	1924.218655	701.572418	717.098892	1936.063051	731.638908	642.456830	1872.181654	766.233563	625.941992	1836.303234	673.864484	543.742239	1869.087458	614.166379	584.450126	1775.120258	693.519652	580.143034	1822.889328	603.300869	562.572479	1767.596602	646.149695	562.778592	1858.017445	762.967050	765.977263	1791.637182	610.506892	502.552748	
237	0.948000	1409.956574	637.645185	656.118274	1744.298577	653.364599	651.101470	1516.827822	872.315645	562.181592	1580.181122	819.201112	561.283827	1491.778135	779.502451	562.999487	1581.867099	1132.063031	743.403435	1752.401829	1067.486763	676.897407	1862.122059	931.398392	773.432374	1903.614640	942.161620	710.313022	1852.093577	916.546106	651.354671	1916.331768	797.976196	701.850951	1922.521114	701.509655	717.380643	1936.055899	731.645942	642.491221	1872.177601	766.228557	625.950873	1836.298704	673.865318	543.744981	1869.017005	614.137530	584.557533	1775.118589	693.519473	580.151200	1822.872162	603.310764	562.573493	1767.639875	646.214426	562.860608	1858.022332	762.968004	765.967548	1791.647911	610.507548	502.552867	
238	0.952000	1409.926891	637.648761	656.155884	1744.312525	653.349817	651.072025	1516.843200	872.331142	562.193453	1580.182791	819.202542	561.294079	1491.770864	779.509664	563.024580	1581.861019	1132.073283	743.407190	1752.404690	1067.483068	676.914454	1862.123013	931.395292	773.431063	1903.618574	942.169487	710.313141	1852.090240	916.559875	651.346445	1916.336536	797.978461	701.852918	1923.113108	701.539576	717.284799	1936.054707	731.642365	642.481446	1872.187853	766.239524	625.939250	1836.300254	673.872113	543.747544	1869.066596	614.192843	584.416270	1775.122404	693.528175	580.155134	1822.891593	603.322625	562.582970	1767.596722	646.164119	562.754869	1858.024597	762.972295	765.979767	1791.645765	610.531688	502.559066	
